<svg width="22" height="22" viewBox="0 0 22 22" fill="none" xmlns="http://www.w3.org/2000/svg">
<g filter="url(#filter0_d_42_3)">
<path d="M4.29289 0.29289C4.68342 -0.09763 5.31658 -0.09763 5.70711 0.29289L11 5.5858L16.2929 0.29289C16.6834 -0.09763 17.3166 -0.09763 17.7071 0.29289C18.0976 0.68342 18.0976 1.31658 17.7071 1.70711L12.4142 7L17.7071 12.2929C18.0976 12.6834 18.0976 13.3166 17.7071 13.7071C17.3166 14.0976 16.6834 14.0976 16.2929 13.7071L11 8.4142L5.70711 13.7071C5.31658 14.0976 4.68342 14.0976 4.29289 13.7071C3.90237 13.3166 3.90237 12.6834 4.29289 12.2929L9.5858 7L4.29289 1.70711C3.90237 1.31658 3.90237 0.68342 4.29289 0.29289Z" fill="white"/>
</g>
<defs>
<filter id="filter0_d_42_3" x="0" y="0" width="22" height="22" filterUnits="userSpaceOnUse" color-interpolation-filters="sRGB">
<feFlood flood-opacity="0" result="BackgroundImageFix"/>
<feColorMatrix in="SourceAlpha" type="matrix" values="0 0 0 0 0 0 0 0 0 0 0 0 0 0 0 0 0 0 127 0" result="hardAlpha"/>
<feOffset dy="4"/>
<feGaussianBlur stdDeviation="2"/>
<feComposite in2="hardAlpha" operator="out"/>
<feColorMatrix type="matrix" values="0 0 0 0 0 0 0 0 0 0 0 0 0 0 0 0 0 0 0.25 0"/>
<feBlend mode="normal" in2="BackgroundImageFix" result="effect1_dropShadow_42_3"/>
<feBlend mode="normal" in="SourceGraphic" in2="effect1_dropShadow_42_3" result="shape"/>
</filter>
</defs>
</svg>
