<svg width="25" height="29" viewBox="0 0 25 29" fill="none" xmlns="http://www.w3.org/2000/svg">
<path d="M12.9307 0.424691C13.505 -0.141564 14.4362 -0.141564 15.0104 0.424691L19.4222 4.77469C19.9965 5.34096 19.9965 6.25904 19.4222 6.82531L15.0104 11.1753C14.4362 11.7415 13.505 11.7415 12.9307 11.1753C12.3565 10.609 12.3565 9.69096 12.9307 9.12469L14.8321 7.25H12.5C7.28276 7.25 2.94118 11.5308 2.94118 16.675C2.94118 21.8192 7.28276 26.1 12.5 26.1C17.7172 26.1 22.0588 21.8192 22.0588 16.675C22.0588 15.8742 22.7172 15.225 23.5294 15.225C24.3416 15.225 25 15.8742 25 16.675C25 23.4208 19.3416 29 12.5 29C5.65841 29 0 23.4208 0 16.675C0 9.92919 5.65841 4.35 12.5 4.35H14.8321L12.9307 2.47531C12.3565 1.90904 12.3565 0.990959 12.9307 0.424691Z" fill="white"/>
</svg>
