<svg width="13" height="13" viewBox="0 0 13 13" fill="none" xmlns="http://www.w3.org/2000/svg">
<path d="M9.60044 0.211532C9.88247 -0.0705106 10.3398 -0.0705106 10.6218 0.211532L12.7885 2.3782C13.0705 2.66025 13.0705 3.11753 12.7885 3.39958L6.28847 9.89957C6.15305 10.035 5.96932 10.1111 5.77779 10.1111H3.61112C3.21225 10.1111 2.88889 9.78777 2.88889 9.38889V7.22222C2.88889 7.03069 2.96499 6.84696 3.10043 6.71154L9.60044 0.211532ZM4.33334 7.52137V8.66667H5.47864L11.2564 2.88889L10.1111 1.7436L4.33334 7.52137ZM0 2.88889C0 2.09114 0.6467 1.44444 1.44445 1.44444H5.05556C5.45445 1.44444 5.77779 1.7678 5.77779 2.16667C5.77779 2.56554 5.45445 2.88889 5.05556 2.88889H1.44445V11.5556H10.1111V7.94444C10.1111 7.54556 10.4345 7.22222 10.8333 7.22222C11.2322 7.22222 11.5556 7.54556 11.5556 7.94444V11.5556C11.5556 12.3533 10.9089 13 10.1111 13H1.44445C0.6467 13 0 12.3533 0 11.5556V2.88889Z" fill="white"/>
</svg>
