<svg width="25" height="25" viewBox="0 0 25 25" fill="none" xmlns="http://www.w3.org/2000/svg">
<path d="M12.0423 0.523019C12.6525 1.2204 12.6525 2.35104 12.0423 3.04842L5.3347 10.7143H23.4375C24.3005 10.7143 25 11.5138 25 12.5C25 13.4863 24.3005 14.2857 23.4375 14.2857H5.3347L12.0423 21.9516C12.6525 22.649 12.6525 23.7797 12.0423 24.477C11.4322 25.1743 10.4428 25.1743 9.83266 24.477L0.457641 13.7627C0.164625 13.4279 0 12.9736 0 12.5C0 12.0265 0.164625 11.5722 0.457641 11.2373L9.83266 0.523019C10.4428 -0.17434 11.4322 -0.17434 12.0423 0.523019Z" fill="white"/>
</svg>
