<svg width="10" height="12" viewBox="0 0 10 12" fill="none" xmlns="http://www.w3.org/2000/svg">
<path d="M5 0C5.34519 0 5.625 0.268632 5.625 0.6V6.95148L7.05806 5.57574C7.30212 5.34144 7.69788 5.34144 7.94194 5.57574C8.186 5.81004 8.186 6.18996 7.94194 6.42426L5.44194 8.82426C5.19788 9.05856 4.80212 9.05856 4.55806 8.82426L2.05806 6.42426C1.81398 6.18996 1.81398 5.81004 2.05806 5.57574C2.30214 5.34144 2.69786 5.34144 2.94194 5.57574L4.375 6.95148V0.6C4.375 0.268632 4.65481 0 5 0ZM0.625 9C0.970175 9 1.25 9.26862 1.25 9.6V10.8H8.75V9.6C8.75 9.26862 9.02981 9 9.375 9C9.72019 9 10 9.26862 10 9.6V10.8C10 11.4628 9.44038 12 8.75 12H1.25C0.559644 12 0 11.4628 0 10.8V9.6C0 9.26862 0.279825 9 0.625 9Z" fill="white"/>
</svg>
