<svg width="20" height="19" viewBox="0 0 20 19" fill="none" xmlns="http://www.w3.org/2000/svg">
<path d="M9.3356 0.252593C9.7145 -0.0841975 10.2855 -0.0841975 10.6644 0.252593L19.6644 8.2526C20.0772 8.6195 20.1143 9.2516 19.7474 9.6644C19.3805 10.0771 18.7484 10.1143 18.3356 9.7474L18 9.4491V17C18 18.1046 17.1046 19 16 19H4.00001C2.89544 19 2.00001 18.1046 2.00001 17V9.4491L1.66437 9.7474C1.25159 10.1143 0.619523 10.0771 0.252603 9.6644C-0.114317 9.2516 -0.0771373 8.6195 0.335653 8.2526L9.3356 0.252593ZM4.00001 7.67129V17H7.00001V12C7.00001 11.4477 7.44773 11 8 11H12C12.5523 11 13 11.4477 13 12V17H16V7.67129L10 2.33795L4.00001 7.67129ZM11 17V13H9V17H11Z" fill="white"/>
</svg>
