<svg width="20" height="20" viewBox="0 0 20 20" fill="none" xmlns="http://www.w3.org/2000/svg">
<g clip-path="url(#clip0_47_2)">
<path d="M16.6667 6.66669H14.4444V7.7778H16.6667V8.88891H17.7778V7.7778C17.7778 7.48311 17.6607 7.2005 17.4523 6.99212C17.244 6.78375 16.9613 6.66669 16.6667 6.66669Z" fill="white"/>
<path d="M17.7778 10H16.6667V13.3333H17.7778V10Z" fill="white"/>
<path d="M16.6667 16.6667H15.5556V17.7778H16.6667C16.9614 17.7778 17.244 17.6607 17.4523 17.4524C17.6607 17.244 17.7778 16.9614 17.7778 16.6667V14.4445H16.6667V16.6667Z" fill="white"/>
<path d="M12.2222 2.22223H3.33333C2.71968 2.22223 2.22222 2.71969 2.22222 3.33334V12.2222C2.22222 12.8359 2.71968 13.3333 3.33333 13.3333H12.2222C12.8359 13.3333 13.3333 12.8359 13.3333 12.2222V3.33334C13.3333 2.71969 12.8359 2.22223 12.2222 2.22223Z" fill="white"/>
<path d="M14.4444 16.6667H11.1111V17.7778H14.4444V16.6667Z" fill="white"/>
<path d="M7.77778 14.4445H6.66666V16.6667C6.66666 16.9614 6.78373 17.244 6.9921 17.4524C7.20047 17.6607 7.48309 17.7778 7.77778 17.7778H10V16.6667H7.77778V14.4445Z" fill="white"/>
</g>
<defs>
<clipPath id="clip0_47_2">
<rect width="20" height="20" fill="white"/>
</clipPath>
</defs>
</svg>
